<svg id="e1iKHqS09lC1" xmlns="http://www.w3.org/2000/svg" xmlns:xlink="http://www.w3.org/1999/xlink" viewBox="0 0 640 640" shape-rendering="geometricPrecision" text-rendering="geometricPrecision" width="640" height="640"><path d="M242.376594,520.232391q-7.254281.000191-32.597428-2.210956c-25.343147-2.211147-38.780116-6.973617-52.557264-10.885647s-16.81658-5.938065-40.247409-19.791329-26.764246-25.86803-39.910056-42.168834-15.108288-45.646312-12.786993-68.343417s5.258735-25.536197,24.570011-65.538126s75.162904-73.994651,120.931711-98.008228s57.427544-22.663193,117.664625-32.509639s90.934824,6.950433,109.179709,12.163257q18.244885,5.212824,35.524359,24.561678q19.859968,18.656331,22.267236,48.74719t-25.614912,73.840798q-28.808421,34.367939-68.23047,54.584374t-102.092999,26.786775q-43.970746.50541-80.36033-19.711025t-10.61363-78.844098q24.765132-38.411227,83.898205-57.616841t95.017244,13.646093q11.119039,24.765131-.505411,42.454512c-11.62445,17.689381-37.905816,36.894993-54.584375,38.916637s-49.530265,6.570341-59.638483-15.162327q-10.108218-21.732668,26.786776-39.422049q18.898919-5.94631,24.460354-3.528295t-5.803237,1.088107q-23.791898,2.650028-33.793728,22.80523c-10.00183,20.155202,19.700571,24.398402,20.609829,24.398402s19.838705,2.07309,36.45943-7.594067q16.620725-9.667157,22.047901-20.521508q7.462366-18.995115-4.918378-30.188665t-49.01418-8.81916q-26.287882,4.918378-41.212615,16.281527t-24.406723,26.023554q-11.232115,18.512187-1.248013,41.184417t62.421428,21.819645q53.719609-5.668903,85.303499-26.454882t42.498083-42.518247q17.59818-33.493311,3.689941-63.296682t-58.892163-38.089858q-46.353635-6.446532-74.902564-.920933t-47.888526,10.437243q-60.469334,20.755297-81.478688,41.375589t-31.383099,31.717744q-30.775726,27.694471-42.247099,77.931173t23.790191,86.876413q22.502128,25.285152,42.297558,31.730176t33.558596,12.674787l43.952087,10.099492Z" transform="translate(.000009 0.000016)" fill="#ca00ff" stroke="#8d599e" stroke-width="1.28" class="svg-elem-1"></path><path d="M242.376594,520.232391q-7.254281.000191-32.597428-2.210956c-25.343147-2.211147-38.780116-6.973617-52.557264-10.885647s-16.81658-5.938065-40.247409-19.791329-26.764246-25.86803-39.910056-42.168834-15.108288-45.646312-12.786993-68.343417s5.258735-25.536197,24.570011-65.538126s75.162904-73.994651,120.931711-98.008228s57.427544-22.663193,117.664625-32.509639s90.934824,6.950433,109.179709,12.163257q18.244885,5.212824,35.524359,24.561678q19.859968,18.656331,22.267236,48.74719t-25.614912,73.840798q-28.808421,34.367939-68.23047,54.584374t-102.092999,26.786775q-43.970746.50541-80.36033-19.711025t-10.61363-78.844098q24.765132-38.411227,83.898205-57.616841t95.017244,13.646093q11.119039,24.765131-.505411,42.454512c-11.62445,17.689381-37.905816,36.894993-54.584375,38.916637s-49.530265,6.570341-59.638483-15.162327q-10.108218-21.732668,26.786776-39.422049q18.898919-5.94631,24.460354-3.528295t-5.803237,1.088107q-23.791898,2.650028-33.793728,22.80523c-10.00183,20.155202,19.700571,24.398402,20.609829,24.398402s19.838705,2.07309,36.45943-7.594067q16.620725-9.667157,22.047901-20.521508q7.462366-18.995115-4.918378-30.188665t-49.01418-8.81916q-26.287882,4.918378-41.212615,16.281527t-24.406723,26.023554q-11.232115,18.512187-1.248013,41.184417t62.421428,21.819645q53.719609-5.668903,85.303499-26.454882t42.498083-42.518247q17.59818-33.493311,3.689941-63.296682t-58.892163-38.089858q-46.353635-6.446532-74.902564-.920933t-47.888526,10.437243q-60.469334,20.755297-81.478688,41.375589t-30.118094,26.580355q-32.040731,32.83186-43.512104,83.068562t23.790191,86.876413q22.502128,25.285152,42.297558,31.730176t33.558596,12.674787l43.952087,10.099492Z" transform="matrix(-1 0 0-1 631.463146 647.172884)" fill="#00ffeb" stroke="rgba(66,136,129,0.5)" stroke-width="1.28" class="svg-elem-2"></path><polygon points="0,-56.168888 16.507622,-22.720792 53.419787,-17.357141 26.709893,8.67857 33.015244,45.441585 0,28.084444 -33.015244,45.441585 -26.709893,8.67857 -53.419787,-17.357141 -16.507622,-22.720792 0,-56.168888" transform="translate(316.936069 322.670538)" fill="#a000ff" stroke="#00ffeb" class="svg-elem-3"></polygon></svg>
